<svg xmlns="http://www.w3.org/2000/svg" xmlns:xlink="http://www.w3.org/1999/xlink" width="100" zoomAndPan="magnify" viewBox="0 0 75 37.5" height="50" preserveAspectRatio="xMidYMid meet" version="1.0"><defs><g/><clipPath id="a72637fa49"><path d="M 2 20 L 12 20 L 12 29 L 2 29 Z M 2 20 " clip-rule="nonzero"/></clipPath><clipPath id="736cae9a7b"><path d="M 10.542969 28.597656 L 2 21.503906 L 3.890625 19.226562 L 12.433594 26.320312 Z M 10.542969 28.597656 " clip-rule="nonzero"/></clipPath><clipPath id="176546875c"><path d="M 10.542969 28.597656 L 2 21.503906 L 3.890625 19.226562 L 12.433594 26.320312 Z M 10.542969 28.597656 " clip-rule="nonzero"/></clipPath></defs><g fill="#eeecda" fill-opacity="1"><g transform="translate(10.01304, 21.542878)"><g><path d="M 1.027344 -0.0390625 C 0.0273438 -0.277344 0.527344 -3.800781 0.5 -4.472656 C 0.488281 -5.417969 0.449219 -6.378906 0.460938 -7.328125 C 0.460938 -8.207031 0.960938 -8.328125 1.738281 -8.378906 C 2.632812 -8.433594 2.777344 -7.789062 2.789062 -7 C 3.394531 -6.144531 3.867188 -5.195312 4.484375 -4.355469 C 4.605469 -5.378906 4.339844 -8.289062 5.867188 -8.351562 C 6.933594 -8.40625 6.617188 -5.417969 6.617188 -4.839844 C 6.617188 -3.945312 7.128906 -1.183594 6.105469 -0.644531 C 4.089844 0.40625 3.027344 -2.960938 2.578125 -3.828125 C 2.484375 -2.789062 2.855469 0.394531 1.027344 -0.0390625 Z M 1.027344 -0.0390625 "/></g></g></g><g fill="#eeecda" fill-opacity="1"><g transform="translate(17.155902, 21.542878)"><g><path d="M 4.933594 -0.683594 C 3.050781 1.15625 0.945312 -1.078125 0.511719 -2.972656 C 0.078125 -4.960938 0.882812 -7.339844 2.816406 -8.25 C 5.117188 -9.339844 6.25 -7.117188 6.261719 -6.773438 C 6.917969 -5.089844 6.234375 -1.960938 4.933594 -0.683594 Z M 3.066406 -1.394531 C 4.433594 -0.789062 5.695312 -4.933594 4.40625 -5.667969 C 3.527344 -6.195312 2.839844 -4.984375 2.589844 -4.316406 C 2.277344 -3.527344 2.050781 -1.828125 3.066406 -1.394531 Z M 3.066406 -1.394531 "/></g></g></g><g fill="#eeecda" fill-opacity="1"><g transform="translate(24.061984, 21.542878)"><g><path d="M 3.734375 -0.183594 C 2.550781 0.511719 2.367188 -0.945312 2.328125 -1.738281 C 2.277344 -2.40625 2.277344 -3.078125 2.289062 -3.75 C 2.289062 -4.183594 2.550781 -5.695312 2.066406 -5.628906 C 2.15625 -5.617188 0.328125 -5.195312 0.394531 -7.011719 C 0.433594 -8.234375 1.382812 -8.328125 2.421875 -8.300781 C 3.539062 -8.273438 4.761719 -8.328125 5.878906 -8.144531 C 7.417969 -7.894531 6.222656 -6.300781 5.289062 -6.078125 C 4.65625 -5.917969 4.644531 -6.050781 4.605469 -5.300781 C 4.578125 -4.671875 4.523438 -4.027344 4.472656 -3.394531 C 4.40625 -2.605469 4.523438 -0.65625 3.734375 -0.183594 Z M 3.734375 -0.183594 "/></g></g></g><g fill="#eeecda" fill-opacity="1"><g transform="translate(30.678668, 21.542878)"><g><path d="M 0.777344 -0.355469 C 0.132812 -1.144531 0.5 -3.367188 0.5 -4.273438 C 0.511719 -5.25 0.550781 -6.234375 0.566406 -7.222656 C 0.566406 -8.195312 1.171875 -8.261719 2.011719 -8.289062 C 2.527344 -8.3125 4.960938 -8.589844 5.15625 -7.839844 C 5.539062 -6.394531 2.90625 -6.878906 2.527344 -6.039062 C 1.972656 -4.839844 6 -5.75 4.617188 -4.378906 C 4.078125 -3.855469 3.183594 -4.027344 2.605469 -3.550781 C 2.328125 -3.339844 1.90625 -2.472656 2.433594 -2.40625 C 3.40625 -2.433594 6.617188 -2.921875 5.128906 -0.90625 C 4.605469 -0.183594 1.394531 0.40625 0.777344 -0.355469 Z M 0.777344 -0.355469 "/></g></g></g><g fill="#eeecda" fill-opacity="1"><g transform="translate(36.585012, 21.542878)"><g/></g></g><g fill="#eeecda" fill-opacity="1"><g transform="translate(40.662889, 21.542878)"><g><path d="M 4.183594 -0.105469 C 3.011719 0.210938 1.5 -0.15625 0.855469 -1.25 C -0.5 -3.527344 1.261719 -9.300781 4.695312 -7.851562 C 5.945312 -7.328125 6.417969 -5.40625 5.695312 -4.289062 C 5.367188 -3.761719 4.617188 -3.527344 4.039062 -3.761719 C 3.277344 -4.078125 3.789062 -5.578125 3.816406 -5.933594 C 2.800781 -6.894531 2.132812 -3.328125 2.210938 -2.839844 C 2.328125 -2.144531 2.828125 -1.261719 3.683594 -1.589844 C 4.316406 -1.828125 4.578125 -2.578125 5.25 -2.761719 C 6.167969 -3.027344 5.839844 -1.578125 5.628906 -1.195312 C 5.328125 -0.644531 4.789062 -0.277344 4.183594 -0.105469 Z M 4.183594 -0.105469 "/></g></g></g><g fill="#eeecda" fill-opacity="1"><g transform="translate(47.095413, 21.542878)"><g><path d="M 1.65625 -0.0390625 C 1.050781 0.105469 0.59375 -0.132812 0.550781 -0.777344 C 0.433594 -2.316406 0.527344 -3.878906 0.472656 -5.445312 C 0.449219 -6.25 0.105469 -8.15625 1.171875 -8.328125 C 1.132812 -8.328125 1.117188 -8.328125 1.183594 -8.339844 C 3.671875 -8.984375 7.457031 -7.878906 6.023438 -4.722656 C 5.816406 -4.261719 5.511719 -3.839844 5.117188 -3.511719 C 4.75 -3.195312 5.523438 -2.445312 5.710938 -2.105469 C 6.445312 -0.84375 5.773438 0.65625 4.40625 -0.644531 C 3.972656 -1.066406 3.617188 -1.578125 3.339844 -2.117188 C 2.933594 -2.882812 2.460938 -2.300781 2.40625 -1.683594 C 2.367188 -1.09375 2.382812 -0.210938 1.65625 -0.0390625 Z M 2.550781 -3.566406 C 2.960938 -3.734375 5.089844 -4.933594 4.25 -5.644531 C 3.921875 -5.917969 3.355469 -5.789062 2.960938 -5.761719 C 2.484375 -5.722656 2.578125 -4 2.550781 -3.566406 Z M 2.550781 -3.566406 "/></g></g></g><g fill="#eeecda" fill-opacity="1"><g transform="translate(53.830486, 21.542878)"><g><path d="M 0.0507812 0.105469 C -0.222656 -0.75 0.683594 -2.277344 0.988281 -3.039062 C 1.238281 -3.628906 2.710938 -8.289062 3.855469 -7.800781 C 5 -7.289062 6.222656 -1.683594 5.867188 -0.59375 C 5.378906 0.945312 4.644531 -0.75 4.222656 -1.066406 C 3.777344 -1.394531 1.960938 -1.5 1.710938 -0.894531 C 1.550781 -0.511719 0.527344 1.589844 0.0507812 0.105469 Z M 2.867188 -2.734375 C 4.210938 -2.800781 3.367188 -4.066406 3.234375 -4.195312 C 2.921875 -3.921875 1.921875 -2.683594 2.867188 -2.734375 Z M 2.867188 -2.734375 "/></g></g></g><g fill="#eeecda" fill-opacity="1"><g transform="translate(60.157774, 21.542878)"><g><path d="M 0.644531 -0.695312 C 0.328125 -1.921875 0.394531 -3.367188 0.40625 -4.617188 C 0.421875 -6.011719 0.449219 -7.707031 2.15625 -7.894531 C 2.644531 -7.945312 4.855469 -8.261719 5.144531 -7.867188 C 5.523438 -7.734375 5.378906 -7.167969 5.300781 -6.90625 C 5.117188 -6.273438 4.722656 -6.128906 4.117188 -6.050781 C 3.617188 -5.984375 2.5 -5.683594 2.617188 -4.972656 C 2.710938 -4.367188 3.710938 -4.566406 4.117188 -4.472656 C 4.695312 -4.339844 4.960938 -3.671875 4.566406 -3.195312 C 4.289062 -2.855469 3.722656 -2.882812 3.328125 -2.839844 C 2.027344 -2.710938 2.671875 -1.644531 2.445312 -0.722656 C 2.222656 0.222656 0.882812 0.25 0.644531 -0.695312 Z M 0.644531 -0.695312 "/></g></g></g><g fill="#eeecda" fill-opacity="1"><g transform="translate(65.551095, 21.542878)"><g><path d="M 3.734375 -0.183594 C 2.550781 0.511719 2.367188 -0.945312 2.328125 -1.738281 C 2.277344 -2.40625 2.277344 -3.078125 2.289062 -3.75 C 2.289062 -4.183594 2.550781 -5.695312 2.066406 -5.628906 C 2.15625 -5.617188 0.328125 -5.195312 0.394531 -7.011719 C 0.433594 -8.234375 1.382812 -8.328125 2.421875 -8.300781 C 3.539062 -8.273438 4.761719 -8.328125 5.878906 -8.144531 C 7.417969 -7.894531 6.222656 -6.300781 5.289062 -6.078125 C 4.65625 -5.917969 4.644531 -6.050781 4.605469 -5.300781 C 4.578125 -4.671875 4.523438 -4.027344 4.472656 -3.394531 C 4.40625 -2.605469 4.523438 -0.65625 3.734375 -0.183594 Z M 3.734375 -0.183594 "/></g></g></g><g clip-path="url(#a72637fa49)"><g clip-path="url(#736cae9a7b)"><g clip-path="url(#176546875c)"><path fill="#eeecda" d="M 9.488281 27.722656 C 10.066406 28.203125 10.921875 28.121094 11.398438 27.542969 C 11.878906 26.964844 11.800781 26.109375 11.222656 25.628906 C 10.644531 25.152344 9.789062 25.230469 9.308594 25.808594 C 8.828125 26.386719 8.910156 27.242188 9.488281 27.722656 Z M 3.214844 22.515625 C 3.792969 22.992188 4.648438 22.914062 5.128906 22.335938 C 5.605469 21.757812 5.527344 20.902344 4.949219 20.421875 C 4.371094 19.941406 3.515625 20.023438 3.035156 20.601562 C 2.558594 21.179688 2.636719 22.035156 3.214844 22.515625 Z M 6.351562 25.117188 C 6.929688 25.597656 7.785156 25.519531 8.265625 24.941406 C 8.742188 24.363281 8.664062 23.507812 8.085938 23.027344 C 7.507812 22.546875 6.652344 22.625 6.171875 23.203125 C 5.695312 23.78125 5.773438 24.636719 6.351562 25.117188 Z M 6.351562 25.117188 " fill-opacity="1" fill-rule="nonzero"/></g></g></g></svg>